# xmcd
#
# Track frame offsets: 
#        150
#        14087
#        29335
#        43202
#
# Disc length: 751 seconds
#
# Revision: 0
# Processed by: cddbd v1.5.2PL0 Copyright (c) Steve Scherf et al.
# Submitted via: ExactAudioCopy v0.95b4
#
DISCID=3102ed04
DTITLE=Ted Herold - Ich Halt 'Nen Platz Im Himmel Frei
DYEAR=2003
DGENRE=Folk/Rock
TTITLE0=Ich Halt 'Nen Platz Im Himmel Frei (Radio-Version)
TTITLE1=Ich Halt 'Nen Platz Im Himmel Frei (Rockabilly-Version)
TTITLE2=Ich Halt 'Nen Platz Im Himmel Frei (Karaoke-Version)
TTITLE3=Ich Halt 'Nen Platz Im Himmel Frei (Unplugged-Version)
EXTD=
EXTT0=
EXTT1=
EXTT2=
EXTT3=
PLAYORDER=
